<svg xmlns="http://www.w3.org/2000/svg" fill="#b4702d" viewBox="0 0 32 32">
  <path d="M27.56,24.44l-2.65-2.65c1.05-1.78,1.03-3.84.08-4.78l-2,2-3.98-3.98c1.74-1.74,3.28-3.28,4-4.02,2.21-2.24,1-7,1-7l-8.01,8.01L7.99,4s-1.21,4.76,1,7c.72.73,2.26,2.28,4,4.02l-3.98,3.98-2-2c-.95.95-.97,3,.08,4.78l-2.65,2.65c-.59.59-.59,1.54,0,2.12.59.59,1.54.59,2.12,0l2.65-2.65c1.79,1.06,3.85,1.04,4.8.09l-2-2c.93-.93,2.4-2.39,3.99-3.98,1.59,1.58,3.06,3.05,3.99,3.98l-2,2c.95.95,3.01.97,4.8-.09l2.65,2.65c.59.59,1.54.59,2.12,0,.59-.59.59-1.54,0-2.12Z"/>
</svg>
