<svg xmlns="http://www.w3.org/2000/svg" fill="#b4702d" viewBox="0 0 32 32">
  <polygon points="24 10 15.56 20.57 19.43 24.44 30 16 30 10 24 10"/>
  <polygon points="10.01 22.35 13.38 24.51 10.01 27.88 12.13 30 15.5 26.63 17.67 29.99 19.91 27.75 12.26 20.1 10.01 22.35"/>
  <polygon points="4 12 7 12 11 17 10.53 13.19 8 10 2 10 2 16 8.4 21.13 8.59 20.93 9.82 19.71 4 15.07 4 12"/>
  <polygon points="13.67 18.68 14.14 19.15 15.09 17.97 13.85 6.98 16 4.83 18.15 6.98 17.21 15.3 19.55 12.37 20.24 6.24 16 2 11.76 6.24 13.09 18.1 13.67 18.68"/>
</svg>
