<svg xmlns="http://www.w3.org/2000/svg" fill="#b4702d" viewBox="0 0 32 32">
  <path d="M9.36,23c1.76,0,3.18-1.42,3.18-3.17v-1.31h1.32c1.76,0,3.18-1.42,3.18-3.17v-.82c-2.07-.48-3.62-1.71-4.39-2.71l-1.1-1.42,1.29-1.24,4.1-3.95-.51-.51c-.6-.59-1.41-.93-2.25-.93-1.66,0-3,1.26-3.15,2.87h-2.96c-.88,0-1.67.35-2.25.93h0c-.58.57-.93,1.37-.93,2.24v2.95c-1.62.15-2.89,1.49-2.89,3.14,0,.84.34,1.65.93,2.24l.43.43,3.75,3.5c.6.59,1.41.93,2.25.93Z"/>
  <path d="M21.96,5c-1.02,0-2.34.67-3.57,1.63h0l-4.13,3.98s3.13,4.05,8.39.98l1.02,1.73c-1.66.97-3.21,1.37-4.59,1.42v.62c0,2.64-2,4.79-4.56,5.1-.28,2.25-2,4.06-4.23,4.45l5.65,5.09,8.04-6.95c3.51-3.13,6.03-6.8,6.03-9.05,0-4.09-4.96-9-8.04-9Z"/>
</svg>
