<svg xmlns="http://www.w3.org/2000/svg" fill="#b4702d" viewBox="0 0 32 32">
  <path d="M15,30h2c1.66,0,3-1.34,3-3h-8c0,1.66,1.34,3,3,3Z"/>
  <path d="M16,11c.89,0,6-.13,6-1.97v-5.03l-3,3-3.03-5-2.97,5-3-3v5c0,1.91,5.11,2,6,2Z"/>
  <path d="M24,6.33v2.7c0,3.45-5.01,3.97-8,3.97-6.61,0-8-2.18-8-4v-2.67c-2.45,2.38-4,5.83-4,9.67,0,4.17,1.82,7.88,4.65,10.26l3.22-3.74,4.13,2.48,4.13-2.48,3.22,3.73c2.82-2.38,4.65-6.08,4.65-10.26,0-3.85-1.55-7.29-4-9.67ZM10.38,20c-1.87,0-3.38-2.11-3.38-4.71v-1.66l5.8,2.31c1.3.52,2.2,2.17,2.2,4.06h-4.62ZM21.62,20h-4.62c0-1.88.9-3.54,2.2-4.06l5.8-2.31v1.66c0,2.6-1.51,4.71-3.38,4.71Z"/>
</svg>
