<svg xmlns="http://www.w3.org/2000/svg" fill="#b4702d" viewBox="0 0 32 32">
  <path d="M29.86,17.69l-2.5-4.23c.56-.52.8-1.33.54-2.1-.35-1.05-1.48-1.61-2.53-1.26h0s-1.73-2.93-1.73-2.93c-.22-.37-.1-.85.27-1.07.18-.11.39-.14.59-.08.2.05.37.18.48.36l.71,1.19c.28.48.89.63,1.37.35.48-.28.63-.9.35-1.37l-.71-1.19c-.38-.64-.98-1.09-1.7-1.28-.72-.18-1.47-.08-2.1.3-1.32.78-1.75,2.49-.97,3.81l1.51,2.56-4.03,1.34c.38-.61.61-1.32.61-2.09,0-1.97-1.43-3.6-3.31-3.93.2-.31.31-.67.31-1.07,0-1.1-.9-2-2-2s-2,.9-2,2c0,.68.34,1.27.85,1.63-1.11.71-1.85,1.95-1.85,3.37,0,1.14.48,2.15,1.24,2.88l-4.86-2.43,1.04-1.04c.78-.78.78-2.05,0-2.83-.78-.78-2.05-.78-2.83,0l-3,3c-.45.45-.66,1.1-.56,1.73s.5,1.18,1.08,1.47l7.05,3.53.34.69h-3.5c-.7,0-1.35.37-1.72.97-.36.6-.38,1.35-.05,1.97l1.75,3.67-.86.29c-1.12.37-1.65,1.65-1.12,2.71h6s1-3,1-3l-1.66-2.61h4.09l8.51,5.3c.94.58,2.17.3,2.75-.64.58-.94.3-2.17-.64-2.76l-6.58-4.1,1.17-2.91,4.87-1.62,2.63,4.44c.19.32.52.49.86.49.17,0,.35-.05.51-.14.48-.28.63-.89.35-1.37ZM16,18s-1-4.4-1-5.5.9-2,2-2,2,.9,2,2c0,2.69-3,5.5-3,5.5Z"/>
</svg>
