<svg xmlns="http://www.w3.org/2000/svg" fill="#d0b30b" viewBox="0 0 32 32">
  <path d="M10,27s3.01-1.63,3.01-6.01c0-5.13-9-8.99-9-8.99,0,0-6.56,14,3.99,15,0,0-.27-5.37-3-10,0,0,4.99,2.13,4.99,10Z"/>
  <path d="M22,8.98l-6,.02V2l-7,11.01h6s0,6.99,0,6.99l7-11.02Z"/>
  <path d="M4.01,12s-6.56,14,3.99,15c0,0-.27-5.37-3-10,0,0,4.99,2.13,4.99,10,0,0,3.01-1.63,3.01-6.01,0-5.13-9-8.99-9-8.99Z"/>
  <polygon points="22 8.98 16 9 16 2 9 13.01 15 13 15 20 22 8.98"/>
  <path d="M25,11s-1.32.65-1.32,2.45c0,2.34,2.3,4.91.32,5.55-2,.64-2-3-2-3-4.71,3.15-6,9,0,11-2.19-3.86,1-6,1-6-.63,3.26,1,4,1,4l2-3c1.09,1.36.89,3.86,0,5,3.59-.9,4.78-5.16,3.51-8.67-1.11-3.1-4.6-4.19-4.51-7.33Z"/>
</svg>
