<svg xmlns="http://www.w3.org/2000/svg" fill="#d0b30b" viewBox="0 0 32 32">
  <path d="M27.42,13.85c-.56,2.2-2.53,2.3-3.54,1.06-2.19-2.7,1.09-5.89-2.29-9.95-.19,1.79-1.38,3.04-3.43,2.38-3.07-.99-1.81-5.34-1.81-5.34-3.31,2.39-4.1,5.16-6.56,6.72-3.04,1.94-4.04-2.74-4.04-2.74C.48,12.33,3.54,15.09,8.61,22.86c-2.2.57-4.61-.86-4.61-.86,1.58,5.62,6.36,8,11.29,8,6.12,0,12.53-3.68,13.52-9.41.8-4.61-1.39-6.74-1.39-6.74ZM23.62,22.88l-6.52,4.09c-1.01.63-2.33.33-2.96-.68l-6.21-9.91c-.63-1.01-.33-2.33.68-2.96l1.99-1.25,3.64,5.8c-.21.33-.38.69-.47,1.09-.21.91-.05,1.85.45,2.64.64,1.03,1.75,1.64,2.97,1.64.66,0,1.3-.18,1.86-.53.79-.5,1.34-1.27,1.55-2.18.21-.91.05-1.85-.45-2.64-.64-1.03-1.75-1.64-2.97-1.64h0c-.14,0-.27.01-.4.03l-3.63-5.8,1.99-1.25c1.01-.63,2.33-.33,2.96.68l6.21,9.91c.63,1.01.33,2.33-.68,2.96ZM16.37,18.57c.25-.16.52-.23.8-.23.5,0,.99.25,1.27.7.44.7.23,1.63-.47,2.07-.25.16-.52.23-.8.23-.5,0-.99-.25-1.27-.7-.44-.7-.23-1.63.47-2.07Z"/>
</svg>
