<svg xmlns="http://www.w3.org/2000/svg" fill="#d0b30b" viewBox="0 0 32 32">
  <path d="M27,7c-.39,10.12-5.39,9.11-6.68,12.28-1.01,2.48.66,5.72.66,5.72,7.1-2.33,9.02-6.34,9.02-10,0-4.33-3-8-3-8Z"/>
  <path d="M13.64,19c-4.06-3.08-8.64-5.03-8.64-12,0,0-3.05,4.04-3,8.56.04,3.67,2.15,7.66,9.41,10.06,0,0,3.59.83,2.59,4.38,8.1-3.24,4.42-7.39-.36-11Z"/>
  <path d="M17.33,16c2.04,0,2.67-.25,2.67-1s-.58-1-1.81-1c-2.51,0-5.3-1.73-5.54-3.78-.25-2.12,1.53-4.22,4.36-4.22,1.77,0,2,.8,2,1.53s-.68,1.47-1.67,1.47-1.79.57-1.79,1.32c0,1.06,1.4,1.68,3.46,1.68,1.71,0,3.03-.21,4.14-1.03,1.28-.96,2.01-2.33,1.83-3.85-.33-2.82-4.05-5.12-7.97-5.12-5.15,0-9,3.18-9,7s4.1,7,9.33,7Z"/>
</svg>
