<svg xmlns="http://www.w3.org/2000/svg" fill="#b4702d" viewBox="0 0 32 32">
  <circle cx="16" cy="4" r="2"/>
  <path d="M20,7c-3.97,0-6.78,4.94-4,7,0,0-.13-3,2-3,2.59,0,2.68,4.69.18,5.67-6.15,2.42-11.15-7.31-5.65-14.67-4.46,2-7.33,8-4.23,13.41-2.59-.63-3.3-3.41-3.3-3.41,0,0-1.07,14,10.98,14,5.84,0,11.02-4.59,11.02-11,0-4.78-3.24-8-7-8ZM10,20c5.97,3.29,13.72-.87,12-8,5.71,5.84-5.87,16.12-12,8Z"/>
  <circle cx="16" cy="4" r="2"/>
  <circle cx="28" cy="24" r="2"/>
  <circle cx="4" cy="24" r="2"/>
</svg>
