<svg xmlns="http://www.w3.org/2000/svg" fill="#d0b30b" viewBox="0 0 32 32">
  <path d="M30,16c0-7.73-6.27-14-14-14S2,8.27,2,16c0,3.26,1.13,6.26,3,8.64v-7.63s3.38-1.43,5-4v3c4.55-.72,7-4,7-4l-2,5c6.97,0,9-5,9-5h0c0,3.98,3,5,3,5v7.63c1.87-2.38,3-5.38,3-8.64ZM10,12.01h0,0Z"/>
  <path d="M23.61,18.38l-4.61.43c-1.13.11-1.99,1.05-2,2.19h-2c0-1.13-.87-2.08-2-2.19l-4.61-.43c-.75-.07-1.39.52-1.39,1.27v4.81c0,1.41,1.14,2.55,2.55,2.55h1.88c.96,0,1.85-.54,2.28-1.41l1.3-2.59h2l1.3,2.59c.43.86,1.31,1.41,2.28,1.41h1.88c1.41,0,2.55-1.14,2.55-2.55v-4.81c0-.75-.65-1.34-1.39-1.27Z"/>
</svg>
