<svg xmlns="http://www.w3.org/2000/svg" fill="#b4702d" viewBox="0 0 32 32">
  <path d="M24.18,13.56c2.64-3.77,2.82-6.56,2.82-6.56,0,0-3.33.22-7.63,3.61.36.52.7,1.12.98,1.82,1.66.11,2.97.66,3.83,1.13Z"/>
  <path d="M26.23,15.14l-.28,1.15c-.03.14-.64,2.53-2.91,4.42.28,1.13.31,2.16.24,3.02,5.87-4.15,6.72-8.72,6.72-8.72,0,0-1.44-.29-3.77.14Z"/>
  <path d="M11.65,12.43c.28-.7.62-1.3.98-1.81-4.31-3.4-7.63-3.62-7.63-3.62,0,0,.18,2.79,2.82,6.56.86-.47,2.17-1.02,3.83-1.13Z"/>
  <path d="M6.05,16.28l-.28-1.14c-2.33-.43-3.78-.14-3.78-.14,0,0,.85,4.57,6.72,8.73-.07-.86-.04-1.89.24-3.02-2.27-1.89-2.88-4.28-2.91-4.42Z"/>
  <path d="M24.01,15.81s-2.04-1.73-5.13-1.35c-.6-3.06-2.87-4.46-2.87-4.46,0,0-2.28,1.4-2.87,4.46-3.09-.38-5.13,1.35-5.13,1.35,0,0,.63,2.6,3.35,4.11-1.32,2.83-.3,5.3-.3,5.3,0,0,2.67.21,4.95-1.92,2.28,2.12,4.95,1.92,4.95,1.92,0,0,1.02-2.47-.3-5.3,2.73-1.51,3.35-4.11,3.35-4.11Z"/>
</svg>
