<svg xmlns="http://www.w3.org/2000/svg" fill="#b4702d" viewBox="0 0 32 32">
  <path d="M16.48,7.83c3.36-1.91,11.11.09,12.7,12.99,1.26-3.46,1.23-9-1.17-12.35-3.36-4.7-8.54-6.23-13.23-3.56-2.87,1.63-3.71,4.74-2.92,7.26h-4.1l1.18,4.24c1.77-2.41,4.87-.1,3.6,2.05-.89,1.52-3.02,1.49-4.11.87-3.36-1.91-5.48-9.52,5.07-17.33-3.67.65-8.52,3.45-10.27,7.18-2.45,5.22-1.21,10.4,3.49,13.07,2.87,1.63,6.03.8,7.84-1.14l2.05,3.5,3.13-3.13c-3-.3-2.52-4.1,0-4.1,1.78,0,2.82,1.83,2.82,3.08,0,3.83-5.63,9.44-17.77,4.34,2.41,2.81,7.29,5.55,11.44,5.18,5.81-.52,9.75-4.17,9.75-9.51,0-3.27-2.31-5.54-4.92-6.12l2.05-3.5-4.31-1.11c1.23,2.71-2.34,4.2-3.6,2.05-.89-1.52.2-3.32,1.29-3.94Z"/>
</svg>
