<svg xmlns="http://www.w3.org/2000/svg" fill="#b4702d" viewBox="0 0 32 32">
  <path d="M25.03,17.59l-.02-13.59-12.98,4.14-1.17,4.09,10.6,7.75,3.56-2.38ZM20.51,12.58c-.08-.53-.36-.99-.8-1.31-.43-.31-.96-.44-1.49-.36s-.99.36-1.31.8l-1.61-1.18c.65-.89,1.6-1.44,2.61-1.59,1.01-.16,2.08.07,2.97.72s1.44,1.6,1.59,2.61c.16,1.01-.07,2.08-.72,2.98l-1.61-1.18c.32-.43.44-.96.36-1.49Z"/>
  <path d="M13.65,22.94l1.61,1.18,4.43-2.96-9.42-6.88-1.47,5.13,1.62,1.18h0c-6.69,8.79,2.17,10.12,6.22,9.12,0,0-7.35-.94-2.99-6.76Z"/>
  <polygon points="23.93 20.73 18.75 24.2 24.52 28.41 26.29 25.99 23.93 20.73"/>
  <polygon points="3.68 9.47 2 12 7.67 16.1 9.39 10.11 3.68 9.47"/>
</svg>
