<svg xmlns="http://www.w3.org/2000/svg" fill="#b4702d" viewBox="0 0 32 32">
  <path d="M28.19,10.14c-.15.47-.95,3.52-2.33,3.35-3.7-.46-4.08-7.46-2.86-10.49-6.5,1.82-6,9-6,9,6.19,0,7.59,4.41,6,6-1.59,1.6-3.95-1.58-4-2-3.83,6.88-.98,14-.98,14,0,0,2.93-5.04,5.98-6.03,0,0-2.25-1.72-1-2.97,1.25-1.25,3,.17,3,1,6-4.49,3.95-9.85,2.19-11.86Z"/>
  <path d="M9,3c1.22,3.03.84,10.03-2.86,10.49-1.38.17-2.18-2.88-2.33-3.35C2.05,12.14,0,17.51,6,22c0-.83,1.75-2.25,3-1,1.25,1.25-1,2.97-1,2.97,3.05.99,5.98,6.03,5.98,6.03,0,0,2.85-7.12-.98-14-.05.42-2.41,3.6-4,2-1.59-1.59-.19-6,6-6,0,0,.5-7.18-6-9Z"/>
</svg>
